<svg width="155" height="50" viewBox="0 0 155 50" fill="none" xmlns="http://www.w3.org/2000/svg">
<g clip-path="url(#clip0_12_1338)">
<g clip-path="url(#clip1_12_1338)">
<g clip-path="url(#clip2_12_1338)">
<path d="M-0.00341797 7.03046C-0.00341797 7.03046 3.75401 3.13084 7.47963 1.16214L9.9405 0.0375977V27.8738C9.9405 27.8738 9.58952 33.3563 11.6278 35.1143C13.6661 36.8712 23.9292 43.4086 23.9292 43.4086L23.8676 43.4782C21.8342 45.786 19.4758 47.7855 16.8658 49.4142L16.126 49.8755C16.126 49.8755 14.5093 50.3677 13.0328 49.3834C11.772 48.5432 4.61308 44.215 1.4562 41.0422C0.672701 40.2548 0.236207 39.1859 0.227258 38.0743L-0.00341797 7.03046Z" fill="white"/>
<path d="M21.7855 17.7866V28.2456L26.7769 31.2832V37.1714L36.161 42.3546V26.0144C36.161 26.0144 27.6558 20.0705 21.7855 17.7866Z" fill="white"/>
<path d="M28.6601 10.0475C28.6601 12.3204 26.8385 13.6389 23.7304 13.6389H17.4146V0.209961H23.611C26.4219 0.209961 28.145 1.52839 28.145 3.68601C28.145 5.15657 27.3337 6.2841 26.0461 6.78025C27.7095 7.21973 28.6591 8.38504 28.6591 10.0465L28.6601 10.0475ZM23.275 2.88461H20.6222V5.78794H23.4142C24.3448 5.78794 24.9583 5.21523 24.9583 4.35517C24.9583 3.4951 24.2852 2.88461 23.275 2.88461ZM25.4127 9.53146C25.4127 8.69128 24.7793 8.17524 23.7105 8.17524H20.6222V10.9642H23.5723C24.7008 10.9642 25.4137 10.4104 25.4137 9.53146H25.4127Z" fill="white"/>
<path d="M35.8269 10.0286H34.1635V13.6389H30.9171V0.209961H36.4404C39.6281 0.209961 41.8056 2.27312 41.8056 5.11878C41.8056 7.10538 40.7566 8.67139 39.0932 9.4549L42.3793 13.6379H39.4899C38.952 13.6379 38.4439 13.3893 38.1138 12.9647L35.8259 10.0276L35.8269 10.0286ZM34.1635 7.20183H36.1431C37.4695 7.20183 38.42 6.34276 38.42 5.10089C38.42 3.85902 37.4894 3.03773 36.1431 3.03773H34.1635V7.20183Z" fill="white"/>
<path d="M43.9036 0.209961H47.1509V13.6379H43.9036V0.209961Z" fill="white"/>
<path d="M63.3052 6.93337C63.3052 10.8877 60.2169 13.6379 55.9206 13.6379H50.2979V0.209961H55.9206C60.2955 0.209961 63.3052 3.03674 63.3052 6.93337ZM60.0191 6.91448C60.0191 4.62263 58.3556 3.03674 55.9206 3.03674H53.5452V10.8111H55.9206C58.2959 10.8111 60.0191 9.26399 60.0191 6.91448Z" fill="white"/>
<path d="M77.619 6.45609V12.1295C76.3523 13.1039 74.5109 13.8487 72.4318 13.8487C67.9177 13.8487 64.8692 10.8688 64.8692 6.93435C64.8692 2.99993 67.9177 0.019043 72.234 0.019043C74.1152 0.019043 75.7577 0.591756 77.0255 1.56616L75.541 4.08769C74.5904 3.22763 73.6011 2.88459 72.3732 2.88459C69.78 2.88459 68.1564 4.6614 68.1564 6.93435C68.1564 9.2073 69.78 10.9841 72.571 10.9841C73.264 10.9841 73.8974 10.8509 74.4721 10.6401V9.09296H73.6578C72.752 9.09296 72.0172 8.35818 72.0172 7.45237V6.45709H77.62L77.619 6.45609Z" fill="white"/>
<path d="M90.17 10.83V13.6379H80.2708V0.209961H90.0706V3.03674H83.5172V5.86351H89.3179V8.69028H83.5172V10.83H90.169H90.17Z" fill="white"/>
<path d="M98.1154 0H107.499V1.18818H99.4497V6.47782H106.801V7.666H99.4497V13.8664H98.1154V0Z" fill="white"/>
<path d="M110.475 0H111.81V12.6782H119.859V13.8664H110.475V0Z" fill="white"/>
<path d="M127.312 0H128.667L135.094 13.8674H133.636L131.953 10.1826H123.986L122.303 13.8674H120.845L127.312 0ZM131.501 9.05304L127.969 1.38604L124.437 9.05304H131.501Z" fill="white"/>
<path d="M137.743 0H139.077V13.8674H137.743V0Z" fill="white"/>
<path d="M143.492 0H148.81C151.808 0 153.779 1.68433 153.779 4.27944C153.779 6.4977 152.321 8.06272 150.001 8.39979L154.723 13.8674H153.06L148.564 8.57776H144.827V13.8674H143.493V0H143.492ZM148.749 7.48802C151.028 7.48802 152.404 6.29884 152.404 4.3381C152.404 2.37735 151.028 1.16829 148.749 1.16829H144.827V7.48802H148.749Z" fill="white"/>
<path d="M82.149 23.6349V24.4363H78.9583V19.8208H82.1232V20.6282H79.8512V21.8561H81.8537V22.6635H79.8512V23.6349H82.149Z" fill="white"/>
<path d="M85.8657 24.4363L84.7233 22.7748L83.6136 24.4363H82.5567L84.1585 22.0928L82.6154 19.8208H83.6723L84.7362 21.4097L85.7732 19.8208H86.8172L85.3009 22.0987L86.9425 24.4363H85.8657Z" fill="white"/>
<path d="M90.7765 23.6349V24.4363H87.5858V19.8208H90.7507V20.6282H88.4787V21.8561H90.4812V22.6635H88.4787V23.6349H90.7765Z" fill="white"/>
<path d="M94.7954 23.6289V24.4363H91.6763V19.8208H92.5692V23.6289H94.7954Z" fill="white"/>
<path d="M98.531 23.6289V24.4363H95.4119V19.8208H96.3048V23.6289H98.531Z" fill="white"/>
<path d="M102.359 23.6349V24.4363H99.1683V19.8208H102.333V20.6282H100.061V21.8561H102.064V22.6635H100.061V23.6349H102.359Z" fill="white"/>
<path d="M107.415 19.8202V24.4884H107.159L104.159 21.5333V24.4357H103.266V19.7734H103.522L106.523 22.7285V19.8202H107.416H107.415Z" fill="white"/>
<path d="M108.249 22.1248C108.249 20.7656 109.286 19.7544 110.705 19.7544C111.335 19.7544 111.86 19.9513 112.254 20.2665L111.841 20.9883C111.525 20.7059 111.158 20.5747 110.731 20.5747C109.805 20.5747 109.155 21.2379 109.155 22.1238C109.155 23.0097 109.805 23.6799 110.731 23.6799C111.171 23.6799 111.545 23.5357 111.841 23.2662L112.254 23.9881C111.86 24.3033 111.335 24.5002 110.705 24.5002C109.287 24.5002 108.249 23.489 108.249 22.1238V22.1248Z" fill="white"/>
<path d="M116.148 23.6349V24.4363H112.957V19.8208H116.122V20.6282H113.85V21.8561H115.853V22.6635H113.85V23.6349H116.148Z" fill="white"/>
<path d="M122.786 22.1315C122.786 23.4838 121.768 24.4363 120.35 24.4363H118.57V19.8208H120.35C121.782 19.8208 122.786 20.7992 122.786 22.1315ZM121.88 22.1315C121.88 21.2387 121.243 20.6282 120.35 20.6282H119.464V23.6289H120.35C121.236 23.6289 121.88 23.0314 121.88 22.1315Z" fill="white"/>
<path d="M126.824 23.6349V24.4363H123.633V19.8208H126.798V20.6282H124.526V21.8561H126.528V22.6635H124.526V23.6349H126.824Z" fill="white"/>
<path d="M130.843 23.6289V24.4363H127.723V19.8208H128.616V23.6289H130.843Z" fill="white"/>
<path d="M131.48 19.8198H132.373V24.4353H131.48V19.8198Z" fill="white"/>
<path d="M137.553 19.8198L135.327 24.501H135.103L132.877 19.8198H133.855L135.214 22.7749L136.574 19.8198H137.552H137.553Z" fill="white"/>
<path d="M141.256 23.6349V24.4363H138.065V19.8208H141.23V20.6282H138.958V21.8561H140.96V22.6635H138.958V23.6349H141.256Z" fill="white"/>
<path d="M143.784 23.1099H143.048V24.4363H142.156V19.8208H143.921C144.953 19.8208 145.668 20.5039 145.668 21.4624C145.668 22.1653 145.295 22.7102 144.703 22.9598L145.826 24.4373H144.782L143.783 23.1109L143.784 23.1099ZM143.048 22.2956H143.85C144.375 22.2956 144.743 21.9546 144.743 21.4554C144.743 20.9563 144.382 20.6282 143.85 20.6282H143.048V22.2956Z" fill="white"/>
<path d="M149.615 23.6349V24.4363H146.424V19.8208H149.589V20.6282H147.317V21.8561H149.319V22.6635H147.317V23.6349H149.615Z" fill="white"/>
<path d="M154.723 22.1315C154.723 23.4838 153.705 24.4363 152.287 24.4363H150.508V19.8208H152.287C153.719 19.8208 154.723 20.7992 154.723 22.1315ZM153.818 22.1315C153.818 21.2387 153.18 20.6282 152.287 20.6282H151.401V23.6289H152.287C153.173 23.6289 153.818 23.0314 153.818 22.1315Z" fill="white"/>
</g>
</g>
</g>
<defs>
<clipPath id="clip0_12_1338">
<rect width="154.72" height="50" fill="white"/>
</clipPath>
<clipPath id="clip1_12_1338">
<rect width="154.72" height="50" fill="white"/>
</clipPath>
<clipPath id="clip2_12_1338">
<rect width="154.727" height="50" fill="white" transform="translate(-0.00341797)"/>
</clipPath>
</defs>
</svg>
