<svg width="175" height="58" viewBox="0 0 175 58" fill="none" xmlns="http://www.w3.org/2000/svg">
<g clip-path="url(#clip0_2_4)">
<g clip-path="url(#clip1_2_4)">
<path d="M-0.00390625 7.45269C-0.00390625 7.45269 3.97907 3.31899 7.92832 1.23212L10.5369 0.0400696V29.5472C10.5369 29.5472 10.1649 35.3588 12.3255 37.2223C14.4862 39.0846 25.3653 46.0145 25.3653 46.0145L25.3 46.0883C23.1446 48.5346 20.6445 50.6541 17.8779 52.3805L17.0937 52.8696C17.0937 52.8696 15.3799 53.3913 13.8148 52.3479C12.4783 51.4573 4.88971 46.8693 1.54333 43.5061C0.712798 42.6713 0.250102 41.5383 0.240616 40.3599L-0.00390625 7.45269Z" fill="#013760"/>
<path d="M23.0929 18.8546V29.9414L28.3839 33.1613V39.4029L38.3313 44.8973V27.5763C38.3313 27.5763 29.3156 21.2756 23.0929 18.8546Z" fill="#013760"/>
<path d="M30.3801 10.6504C30.3801 13.0598 28.4492 14.4574 25.1545 14.4574H18.4597V0.222382H25.028C28.0076 0.222382 29.8342 1.61995 29.8342 3.90708C29.8342 5.46591 28.9741 6.66112 27.6092 7.18706C29.3725 7.65292 30.3791 8.88818 30.3791 10.6494L30.3801 10.6504ZM24.6718 3.05758H21.8598V6.13519H24.8194C25.8059 6.13519 26.4562 5.5281 26.4562 4.61641C26.4562 3.70472 25.7426 3.05758 24.6718 3.05758ZM26.9378 10.1034C26.9378 9.2128 26.2665 8.66579 25.1334 8.66579H21.8598V11.6222H24.9869C26.1832 11.6222 26.9389 11.0351 26.9389 10.1034H26.9378Z" fill="black"/>
<path d="M37.9772 10.6304H36.2139V14.4574H32.7727V0.222382H38.6275C42.0066 0.222382 44.3148 2.40938 44.3148 5.42586C44.3148 7.53171 43.2029 9.19172 41.4396 10.0223L44.9229 14.4563H41.8601C41.2899 14.4563 40.7513 14.1928 40.4014 13.7428L37.9762 10.6293L37.9772 10.6304ZM36.2139 7.63394H38.3124C39.7184 7.63394 40.726 6.72331 40.726 5.40689C40.726 4.09048 39.7395 3.21989 38.3124 3.21989H36.2139V7.63394Z" fill="black"/>
<path d="M46.5386 0.222382H49.9809V14.4563H46.5386V0.222382Z" fill="black"/>
<path d="M67.1049 7.34937C67.1049 11.541 63.8313 14.4563 59.277 14.4563H53.3168V0.222382H59.277C63.9145 0.222382 67.1049 3.21884 67.1049 7.34937ZM63.6215 7.32935C63.6215 4.89993 61.8582 3.21884 59.277 3.21884H56.7591V11.4599H59.277C61.795 11.4599 63.6215 9.81989 63.6215 7.32935Z" fill="black"/>
<path d="M82.278 6.84346V12.8575C80.9352 13.8904 78.9832 14.6798 76.7794 14.6798C71.9943 14.6798 68.7628 11.521 68.7628 7.35043C68.7628 3.17984 71.9943 0.0200195 76.5696 0.0200195C78.5637 0.0200195 80.3049 0.62711 81.6487 1.66001L80.0751 4.33289C79.0675 3.4212 78.0188 3.05758 76.7172 3.05758C73.9684 3.05758 72.2473 4.94104 72.2473 7.35043C72.2473 9.75982 73.9684 11.6433 76.9269 11.6433C77.6615 11.6433 78.3329 11.502 78.9421 11.2786V9.63861H78.0789C77.1187 9.63861 76.3399 8.85972 76.3399 7.89955V6.84452H82.279L82.278 6.84346Z" fill="black"/>
<path d="M95.5823 11.4799V14.4563H85.0889V0.222382H95.4769V3.21884H88.5301V6.21529H94.679V9.21175H88.5301V11.4799H95.5812H95.5823Z" fill="black"/>
<path d="M104.005 0H113.951V1.2595H105.419V6.86666H113.211V8.12616H105.419V14.6988H104.005V0Z" fill="black"/>
<path d="M117.107 0H118.521V13.4393H127.053V14.6988H117.107V0Z" fill="black"/>
<path d="M134.954 0H136.39L143.203 14.6998H141.658L139.874 10.7938H131.428L129.644 14.6998H128.098L134.954 0ZM139.394 9.59646L135.65 1.46924L131.906 9.59646H139.394Z" fill="black"/>
<path d="M146.011 0H147.425V14.6998H146.011V0Z" fill="black"/>
<path d="M152.105 0H157.743C160.92 0 163.009 1.78544 163.009 4.53632C163.009 6.88774 161.464 8.5467 159.004 8.90399L164.011 14.6998H162.247L157.481 9.09266H153.52V14.6998H152.106V0H152.105ZM157.677 7.9375C160.093 7.9375 161.552 6.67694 161.552 4.5985C161.552 2.52006 160.093 1.23842 157.677 1.23842H153.52V7.9375H157.677Z" fill="black"/>
<path d="M87.0798 25.0541V25.9036H83.6976V21.011H87.0524V21.8668H84.6441V23.1685H86.7668V24.0243H84.6441V25.0541H87.0798Z" fill="black"/>
<path d="M91.0196 25.9036L89.8086 24.1424L88.6323 25.9036H87.512L89.2099 23.4194L87.5741 21.011H88.6945L89.8223 22.6953L90.9216 21.011H92.0282L90.4209 23.4257L92.1611 25.9036H91.0196Z" fill="black"/>
<path d="M96.2252 25.0541V25.9036H92.843V21.011H96.1978V21.8668H93.7895V23.1685H95.9122V24.0243H93.7895V25.0541H96.2252Z" fill="black"/>
<path d="M100.485 25.0477V25.9036H97.179V21.011H98.1255V25.0477H100.485Z" fill="black"/>
<path d="M104.445 25.0477V25.9036H101.139V21.011H102.085V25.0477H104.445Z" fill="black"/>
<path d="M108.503 25.0541V25.9036H105.121V21.011H108.476V21.8668H106.067V23.1685H108.19V24.0243H106.067V25.0541H108.503Z" fill="black"/>
<path d="M113.862 21.01V25.9584H113.592L110.411 22.826V25.9025H109.464V20.9604H109.736L112.917 24.0928V21.01H113.864H113.862Z" fill="black"/>
<path d="M114.747 23.4531C114.747 22.0123 115.846 20.9404 117.35 20.9404C118.018 20.9404 118.575 21.1491 118.992 21.4832L118.554 22.2484C118.22 21.9491 117.83 21.8099 117.377 21.8099C116.396 21.8099 115.707 22.5129 115.707 23.452C115.707 24.3911 116.396 25.1015 117.377 25.1015C117.844 25.1015 118.241 24.9487 118.554 24.663L118.992 25.4282C118.575 25.7623 118.018 25.971 117.35 25.971C115.847 25.971 114.747 24.8991 114.747 23.452V23.4531Z" fill="black"/>
<path d="M123.12 25.0541V25.9036H119.737V21.011H123.092V21.8668H120.684V23.1685H122.806V24.0243H120.684V25.0541H123.12Z" fill="black"/>
<path d="M130.156 23.4605C130.156 24.8939 129.077 25.9036 127.574 25.9036H125.687V21.011H127.574C129.091 21.011 130.156 22.0481 130.156 23.4605ZM129.196 23.4605C129.196 22.514 128.52 21.8668 127.574 21.8668H126.635V25.0477H127.574C128.513 25.0477 129.196 24.4143 129.196 23.4605Z" fill="black"/>
<path d="M134.436 25.0541V25.9036H131.054V21.011H134.409V21.8668H132V23.1685H134.123V24.0243H132V25.0541H134.436Z" fill="black"/>
<path d="M138.696 25.0477V25.9036H135.39V21.011H136.336V25.0477H138.696Z" fill="black"/>
<path d="M139.372 21.0099H140.318V25.9025H139.372V21.0099Z" fill="black"/>
<path d="M145.81 21.0099L143.45 25.9721H143.213L140.853 21.0099H141.89L143.331 24.1424L144.771 21.0099H145.808H145.81Z" fill="black"/>
<path d="M149.735 25.0541V25.9036H146.352V21.011H149.707V21.8668H147.299V23.1685H149.422V24.0243H147.299V25.0541H149.735Z" fill="black"/>
<path d="M152.415 24.4976H151.635V25.9036H150.688V21.011H152.56C153.653 21.011 154.412 21.7351 154.412 22.7511C154.412 23.4963 154.016 24.0739 153.389 24.3384L154.579 25.9046H153.472L152.414 24.4986L152.415 24.4976ZM151.635 23.6344H152.484C153.041 23.6344 153.431 23.2728 153.431 22.7438C153.431 22.2147 153.048 21.8668 152.484 21.8668H151.635V23.6344Z" fill="black"/>
<path d="M158.595 25.0541V25.9036H155.213V21.011H158.568V21.8668H156.16V23.1685H158.282V24.0243H156.16V25.0541H158.595Z" fill="black"/>
<path d="M164.011 23.4605C164.011 24.8939 162.931 25.9036 161.428 25.9036H159.542V21.011H161.428C162.946 21.011 164.011 22.0481 164.011 23.4605ZM163.05 23.4605C163.05 22.514 162.375 21.8668 161.428 21.8668H160.489V25.0477H161.428C162.367 25.0477 163.05 24.4143 163.05 23.4605Z" fill="black"/>
</g>
</g>
<defs>
<clipPath id="clip0_2_4">
<rect width="171" height="53" fill="white"/>
</clipPath>
<clipPath id="clip1_2_4">
<rect width="174" height="60" fill="white"/>
</clipPath>
</defs>
</svg>
